<svg width="15" height="14" viewBox="0 0 15 14" fill="none" xmlns="http://www.w3.org/2000/svg">
<path d="M7.30638 4.7588C8.60416 4.7588 9.65581 5.73731 9.65581 6.94484C9.65581 8.15236 8.60416 9.13087 7.30638 9.13087C6.0086 9.13087 4.95696 8.15236 4.95696 6.94484C4.95696 5.73731 6.0086 4.7588 7.30638 4.7588ZM7.30638 3.55127C5.29259 3.55127 3.65918 5.07109 3.65918 6.94484C3.65918 8.81858 5.29259 10.3384 7.30638 10.3384C9.32017 10.3384 10.9536 8.81858 10.9536 6.94484C10.9461 5.07109 9.31272 3.55127 7.30638 3.55127Z" fill="white"/>
<path d="M10.4094 1.58741C11.8713 1.58741 13.0572 2.69084 13.0572 4.05104V9.83189C13.0572 11.1921 11.8713 12.2955 10.4094 12.2955H4.19652C2.73465 12.2955 1.54875 11.1921 1.54875 9.83189V4.05104C1.54875 2.69084 2.73465 1.58741 4.19652 1.58741H10.4094ZM10.4094 0.379883H4.19652C2.01864 0.379883 0.250977 2.02462 0.250977 4.05104V9.83189C0.250977 11.8583 2.01864 13.5031 4.19652 13.5031H10.4094C12.5873 13.5031 14.355 11.8583 14.355 9.83189V4.05104C14.355 2.03156 12.5873 0.379883 10.4094 0.379883Z" fill="white"/>
<path d="M11.9701 3.56521C12.079 3.13625 11.7935 2.70641 11.3325 2.60512C10.8715 2.50383 10.4095 2.76946 10.3006 3.19841C10.1918 3.62736 10.4772 4.05721 10.9383 4.1585C11.3993 4.25978 11.8612 3.99416 11.9701 3.56521Z" fill="white"/>
</svg>
