<svg width="18" height="22" viewBox="0 0 18 22" fill="none" xmlns="http://www.w3.org/2000/svg">
<path d="M9 22C9.18455 21.999 9.36332 21.9381 9.50727 21.8271C9.81818 21.56 18 15.2271 18 8.64286C18 6.35063 17.0518 4.15228 15.364 2.53143C13.6761 0.910584 11.3869 0 9 0C6.61305 0 4.32387 0.910584 2.63604 2.53143C0.948212 4.15228 0 6.35063 0 8.64286C0 15.2271 8.18182 21.56 8.49273 21.8271C8.63668 21.9381 8.81545 21.999 9 22ZM1.63636 8.64286C1.63636 6.7674 2.41217 4.96875 3.79312 3.6426C5.17407 2.31645 7.04704 1.57143 9 1.57143C10.953 1.57143 12.8259 2.31645 14.2069 3.6426C15.5878 4.96875 16.3636 6.7674 16.3636 8.64286C16.3636 13.5929 10.7427 18.7079 9 20.185C7.25727 18.7079 1.63636 13.5929 1.63636 8.64286Z" fill="white"/>
<path d="M13 8C13 7.20888 12.7654 6.43552 12.3259 5.77772C11.8864 5.11992 11.2616 4.60723 10.5307 4.30448C9.79983 4.00173 8.99556 3.92252 8.21964 4.07686C7.44372 4.2312 6.73098 4.61216 6.17157 5.17157C5.61216 5.73098 5.2312 6.44372 5.07686 7.21964C4.92252 7.99556 5.00173 8.79983 5.30448 9.53073C5.60723 10.2616 6.11992 10.8864 6.77772 11.3259C7.43552 11.7654 8.20888 12 9 12C10.0609 12 11.0783 11.5786 11.8284 10.8284C12.5786 10.0783 13 9.06087 13 8ZM6.6 8C6.6 7.52533 6.74076 7.06131 7.00447 6.66663C7.26819 6.27195 7.64302 5.96434 8.08156 5.78269C8.5201 5.60104 9.00266 5.55351 9.46822 5.64612C9.93377 5.73872 10.3614 5.9673 10.6971 6.30294C11.0327 6.63859 11.2613 7.06623 11.3539 7.53178C11.4465 7.99734 11.399 8.4799 11.2173 8.91844C11.0357 9.35698 10.728 9.73181 10.3334 9.99553C9.93869 10.2592 9.47468 10.4 9 10.4C8.36348 10.4 7.75303 10.1471 7.30294 9.69706C6.85286 9.24697 6.6 8.63652 6.6 8Z" fill="white"/>
</svg>
