<svg width="22" height="22" viewBox="0 0 22 22" fill="none" xmlns="http://www.w3.org/2000/svg">
<g clip-path="url(#clip0_0_354)">
<path d="M16.4258 22.0183C15.5202 22.0186 14.6302 21.7823 13.8439 21.3328L13.733 21.2703C8.62128 18.3462 4.3447 14.1602 1.31185 9.11223L0.733688 8.14863C0.14153 7.1635 -0.103849 6.00851 0.036656 4.86772C0.177161 3.72693 0.695465 2.666 1.50897 1.85399L2.66089 0.702074C3.62889 -0.265926 5.20321 -0.265926 6.17033 0.702074L8.70825 3.23999C9.09019 3.62375 9.33667 4.12152 9.41035 4.65792C9.48403 5.19431 9.3809 5.74011 9.11657 6.21263L8.16265 7.90663C8.1426 7.94228 8.13476 7.9835 8.14032 8.02401C8.14588 8.06453 8.16454 8.10211 8.19345 8.13103L13.8439 13.7815C13.8733 13.8103 13.9112 13.8288 13.952 13.8342C13.9928 13.8396 14.0342 13.8316 14.0701 13.8114L15.7614 12.8584L15.7623 12.8575C16.2349 12.5935 16.7807 12.4905 17.317 12.5642C17.8533 12.6378 18.3511 12.8841 18.735 13.2658L21.2738 15.8055C22.2418 16.7735 22.2418 18.3478 21.2738 19.315L20.0708 20.517C19.5917 20.9945 19.0232 21.3729 18.3978 21.6305C17.7723 21.8881 17.1023 22.0199 16.4258 22.0183ZM4.41561 1.73607C4.23081 1.73607 4.04601 1.80647 3.90521 1.94727L2.75329 3.09831C2.21787 3.63277 1.87673 4.33105 1.78423 5.08189C1.69173 5.83273 1.85319 6.59293 2.24289 7.24135L2.82105 8.20495C5.6979 12.9937 9.75449 16.9648 14.6034 19.7391L14.7142 19.8016C16.0571 20.5698 17.7467 20.3525 18.8256 19.2718L20.0286 18.0698C20.0956 18.0027 20.1488 17.9232 20.1851 17.8356C20.2214 17.748 20.2401 17.6542 20.2401 17.5594C20.2401 17.4646 20.2214 17.3707 20.1851 17.2831C20.1488 17.1955 20.0956 17.116 20.0286 17.049L17.4898 14.5093C17.378 14.3982 17.2331 14.3266 17.077 14.3053C16.9209 14.284 16.7621 14.3142 16.6247 14.3914L14.9334 15.3444C14.5625 15.552 14.1341 15.6332 13.713 15.5755C13.2919 15.5179 12.901 15.3246 12.5996 15.025L6.94913 9.37447C6.64917 9.07342 6.45566 8.68268 6.39801 8.26163C6.34035 7.84057 6.4217 7.4122 6.62969 7.04159L7.58361 5.34847C7.66025 5.21105 7.69011 5.05242 7.66868 4.89653C7.64725 4.74065 7.57569 4.59596 7.46481 4.48431L4.92601 1.94727C4.85903 1.8802 4.77946 1.82701 4.69187 1.79077C4.60428 1.75453 4.5104 1.73594 4.41561 1.73607Z" fill="white"/>
</g>
<defs>
<clipPath id="clip0_0_354">
<rect width="22" height="22" fill="white"/>
</clipPath>
</defs>
</svg>
