<svg width="15" height="14" viewBox="0 0 15 14" fill="none" xmlns="http://www.w3.org/2000/svg">
<path d="M0.848201 7.39554C0.365231 7.23298 0.267128 6.59126 0.735005 6.3688L12.8696 0.516365C13.8129 0.0543307 14.477 0.627604 14.3789 1.38055C13.8959 5.02549 13.4205 8.67042 12.9375 12.3154C12.8093 13.3079 11.8056 13.8041 11.0736 13.2309C9.54921 12.033 7.77579 10.6469 6.79476 9.87684C6.40234 9.56882 6.35708 8.94422 6.69667 8.56775C7.61733 7.54956 9.353 5.61586 10.8396 3.96451C11.0057 3.78483 10.7944 3.49392 10.6057 3.63937C8.74173 5.08537 6.53064 6.79662 5.27039 7.76346C4.62894 8.25972 3.82903 8.39662 3.08948 8.14849L0.848201 7.39554Z" fill="white"/>
</svg>
