<svg width="22" height="14" viewBox="0 0 22 14" fill="none" xmlns="http://www.w3.org/2000/svg">
<path d="M21.6472 1.35047C21.3835 1.10446 20.3579 1.13522 19.3322 1.13522C18.3066 1.13522 17.2517 1.13522 17.0173 1.25822C16.7828 1.35047 16.2847 2.61125 15.64 3.90277C14.9074 5.3788 13.999 6.76257 13.4422 6.76257C12.7096 6.76257 12.8855 4.33327 12.9148 2.58049C12.9441 1.41197 12.7682 1.04296 12.5924 0.91996C12.2115 0.643205 11.1272 0.366453 11.1272 0.366453C11.1272 0.366453 7.90385 0.120447 7.4643 1.56572C8.07967 1.65798 9.1346 1.44272 8.72435 5.96305C8.69504 6.17831 8.22619 8.0541 6.73171 5.53255C6.35076 4.91754 4.91488 1.13522 4.41672 1.13522C2.74642 1.07372 1.10542 1.01221 0.519349 1.35047C-0.00811511 1.65797 1.25194 4.27178 3.3618 7.74659C5.09071 10.5756 6.90752 12.8204 10.0723 13.3739C10.6584 13.4354 12.2115 13.497 12.7096 13.2509C13.032 13.0664 12.651 10.6064 13.7646 10.3911C14.2627 10.2989 16.1968 12.9434 16.9293 13.2509C17.3689 13.4354 18.3359 13.497 19.3322 13.4662C20.4165 13.4355 21.6179 13.5585 21.7351 12.7897C21.9989 11.0984 18.4824 8.88436 18.3652 7.83884C18.2773 7.10083 19.6546 5.6863 20.3579 4.64078C21.2663 3.34926 22.204 1.81173 21.6472 1.35047Z" fill="white"/>
</svg>
